<svg width="580" height="400" xmlns="http://www.w3.org/2000/svg">
 <!-- Created with Method Draw - http://github.com/duopixel/Method-Draw/ -->

 <g>
  <title>background</title>
  <rect fill="#ffffaa" id="canvas_background" height="402" width="582" y="-1" x="-1"/>
  <g display="none" overflow="visible" y="0" x="0" height="100%" width="100%" id="canvasGrid">
   <rect fill="url(#gridpattern)" stroke-width="0" y="0" x="0" height="100%" width="100%"/>
  </g>
 </g>
 <g>
  <title>Layer 1</title>
  <g id="svg_12">
   <g transform="matrix(0.2712673404150543,0,0,0.2712673404150543,0,0) " id="svg_10">
    <path id="svg_11" fill="#00D8FF" d="m1413.273889,299.088802c-2.65568,-0.91409 -5.40751,-1.77896 -8.24091,-2.5969c0.4657,-1.90063 0.89313,-3.77665 1.27316,-5.62077c6.23821,-30.28108 2.15945,-54.67572 -11.7683,-62.70748c-13.35497,-7.70139 -35.196,0.32855 -57.25439,19.52529c-2.12118,1.84594 -4.24828,3.80034 -6.37446,5.84861c-1.4167,-1.35519 -2.83112,-2.6648 -4.2419,-3.91746c-23.11783,-20.5264 -46.2899,-29.17651 -60.20398,-21.12151c-13.34221,7.72371 -17.29338,30.657 -11.67808,59.3546c0.54225,2.77188 1.1761,5.60254 1.89288,8.4806c-3.27951,0.93094 -6.44555,1.92341 -9.47488,2.97921c-27.10319,9.44937 -44.41252,24.25885 -44.41252,39.62017c0,15.86529 18.58158,31.77842 46.81165,41.42737c2.22781,0.76144 4.53945,1.48141 6.92173,2.16492c-0.77328,3.11273 -1.44586,6.16303 -2.01045,9.13814c-5.35419,28.19954 -1.17291,50.59103 12.13376,58.26599c13.74457,7.92604 36.81183,-0.221 59.27349,-19.85519c1.77532,-1.55203 3.55702,-3.19794 5.3419,-4.92313c2.31347,2.2278 4.62329,4.33622 6.92082,6.31385c21.75673,18.72239 43.24507,26.28252 56.53943,18.58614c13.7309,-7.94882 18.19335,-32.00262 12.39987,-61.26799c-0.44246,-2.23509 -0.95737,-4.51849 -1.53563,-6.84244c1.61993,-0.47892 3.21024,-0.97332 4.76091,-1.48733c29.34785,-9.72368 48.44252,-25.44316 48.44252,-41.52033c0,-15.41691 -17.86753,-30.32619 -45.51662,-39.84436l0,0zm-6.36535,70.98393c-1.39983,0.46342 -2.83613,0.91135 -4.29976,1.34561c-3.23986,-10.25683 -7.61253,-21.16345 -12.96354,-32.43187c5.10631,-11.00003 9.30993,-21.76721 12.45911,-31.95751c2.61877,0.75779 5.16053,1.55705 7.6098,2.40051c23.68971,8.15524 38.14012,20.2129 38.14012,29.50369c0,9.89638 -15.60601,22.74327 -40.94573,31.13957l0,0zm-10.51428,20.83444c2.56182,12.94076 2.92773,24.64071 1.23079,33.78705c-1.5247,8.21858 -4.59095,13.69809 -8.38217,15.89263c-8.06776,4.66977 -25.32058,-1.4003 -43.92722,-17.41186c-2.13303,-1.83546 -4.28154,-3.79533 -6.43689,-5.86957c7.21336,-7.88913 14.42262,-17.06053 21.45872,-27.24627c12.37572,-1.09818 24.06792,-2.89354 34.67106,-5.34463c0.52221,2.1066 0.98609,4.17263 1.38571,6.19265l0,0zm-106.32756,48.87268c-7.8823,2.78372 -14.16015,2.86347 -17.95503,0.67531c-8.07504,-4.65747 -11.43201,-22.63574 -6.85292,-46.75196c0.52449,-2.76186 1.14876,-5.5989 1.86828,-8.49882c10.48694,2.31893 22.09348,3.98762 34.49881,4.9933c7.0835,9.96701 14.501,19.12839 21.97592,27.15012c-1.63315,1.57664 -3.25991,3.07764 -4.87757,4.49206c-9.93238,8.68201 -19.88572,14.84184 -28.65749,17.93999l0,0zm-36.92758,-69.76773c-12.4828,-4.2665 -22.79157,-9.81163 -29.85775,-15.86256c-6.34939,-5.43758 -9.55508,-10.83598 -9.55508,-15.2164c0,-9.32178 13.89768,-21.21175 37.07658,-29.29317c2.81244,-0.98062 5.75656,-1.90473 8.81187,-2.77279c3.20341,10.42041 7.40566,21.31518 12.47688,32.33207c-5.13684,11.18048 -9.39878,22.24886 -12.63363,32.7914c-2.17813,-0.6261 -4.28837,-1.28501 -6.31887,-1.97855l0,0zm12.37846,-84.25915c-4.81104,-24.5874 -1.61583,-43.13526 6.42458,-47.78954c8.56444,-4.95821 27.50282,2.11115 47.46327,19.83469c1.2759,1.13281 2.5568,2.31848 3.84136,3.54517c-7.43801,7.98664 -14.78762,17.07921 -21.80823,26.98744c-12.03989,1.11595 -23.56486,2.90858 -34.16116,5.30909c-0.6662,-2.67984 -1.2563,-5.31274 -1.75982,-7.88685l0,0zm110.42683,27.26723c-2.5331,-4.37541 -5.13365,-8.64738 -7.78478,-12.80269c8.16801,1.03256 15.99379,2.40324 23.34295,4.08058c-2.20639,7.07119 -4.9564,14.46454 -8.19352,22.04381c-2.32213,-4.40867 -4.77823,-8.85379 -7.36465,-13.3217l0,0zm-45.03178,-43.86115c5.04434,5.46493 10.09597,11.56644 15.06467,18.18651c-5.00698,-0.2365 -10.07592,-0.35953 -15.18679,-0.35953c-5.06257,0 -10.09415,0.1203 -15.07013,0.35269c4.97371,-6.55855 10.06908,-12.65186 15.19225,-18.17967l0,0zm-45.32022,43.93679c-2.53037,4.38771 -4.9409,8.80868 -7.22658,13.23786c-3.18472,-7.55284 -5.90921,-14.97991 -8.13473,-22.15135c7.30404,-1.63451 15.09291,-2.97101 23.20897,-3.98398c-2.68849,4.19359 -5.31045,8.497 -7.84766,12.89656l0,0.00091l0,0zm8.08142,65.35222c-8.38536,-0.9355 -16.29135,-2.2032 -23.59356,-3.7926c2.26106,-7.29948 5.0457,-14.88513 8.29787,-22.60064c2.29159,4.42598 4.71169,8.84878 7.25756,13.24606l0.00045,0c2.59326,4.47976 5.27993,8.86792 8.03768,13.14718l0,0zm37.54137,31.03021c-5.18332,-5.59252 -10.35343,-11.77879 -15.40278,-18.43303c4.90171,0.19229 9.89912,0.29072 14.97809,0.29072c5.21795,0 10.37621,-0.11756 15.45336,-0.34358c-4.9851,6.77409 -10.01851,12.96992 -15.02867,18.48589l0,0zm52.19821,-57.8167c3.42167,7.7989 6.3061,15.34491 8.59633,22.51999c-7.42251,1.69329 -15.43649,3.05713 -23.88018,4.07056c2.65751,-4.21136 5.28083,-8.5567 7.8586,-13.02643c2.60783,-4.52213 5.08398,-9.0511 7.42525,-13.56412l0,0zm-16.89831,8.10056c-4.00175,6.93859 -8.11014,13.5623 -12.28094,19.81464c-7.59659,0.54317 -15.4447,0.82295 -23.44365,0.82295c-7.96659,0 -15.71583,-0.24743 -23.17799,-0.73181c-4.33895,-6.33436 -8.53664,-12.97767 -12.51288,-19.84609l0.00092,0c-3.96576,-6.84972 -7.61573,-13.75733 -10.92303,-20.62619c3.30639,-6.88482 6.94679,-13.80017 10.88976,-20.6376l-0.00091,0.00137c3.95345,-6.85565 8.11423,-13.46661 12.41308,-19.76132c7.61345,-0.57552 15.42055,-0.87581 23.31059,-0.87581l0.00046,0c7.92558,0 15.74271,0.30256 23.35388,0.8831c4.23323,6.24869 8.36577,12.83823 12.33471,19.69479c4.01405,6.93358 7.70139,13.8029 11.03603,20.54008c-3.32462,6.85292 -7.00375,13.79151 -11.00003,20.72189l0,0zm22.56009,-122.12405c8.57264,4.94363 11.90637,24.88131 6.52027,51.02575c-0.34358,1.66823 -0.73045,3.36745 -1.15058,5.08945c-10.62091,-2.45063 -22.15408,-4.27425 -34.22905,-5.40706c-7.03429,-10.01714 -14.32374,-19.12383 -21.64054,-27.00795c1.96715,-1.89242 3.93158,-3.6969 5.88779,-5.39976c18.89965,-16.44765 36.56395,-22.9415 44.61211,-18.30043l0,0zm-58.28468,78.43515c12.62498,0 22.85993,10.23449 22.85993,22.85993c0,12.62497 -10.23495,22.85992 -22.85993,22.85992c-12.62497,0 -22.85993,-10.23495 -22.85993,-22.85992c0,-12.62544 10.23496,-22.85993 22.85993,-22.85993l0,0z"/>
   </g>
  </g>
  <g id="svg_18">
   <path stroke="#000" d="m169.5,80c0,1 0,3 0,7c0,3 0,5 0,9l0,2l0,1l0,1" id="svg_15" stroke-width="1.5" fill="none"/>
   <path stroke="#000" d="m158.5,90c1.3125,0 2.625,0 5.25,0c1.3125,0 2.625,0 3.9375,0c1.3125,0 3.9375,0 5.25,0c1.3125,0 2.625,0 3.9375,0l1.3125,0l1.3125,0" id="svg_17" stroke-width="1.5" fill="none"/>
  </g>
  <g id="svg_21">
   <path stroke="#000" d="m295.5,81c0,1 0,3 0,7c0,3 0,5 0,9l0,2l0,1l0,1" id="svg_19" stroke-width="1.5" fill="none"/>
   <path stroke="#000" d="m284.5,91c1.3125,0 2.625,0 5.25,0c1.3125,0 2.625,0 3.9375,0c1.3125,0 3.9375,0 5.25,0c1.3125,0 2.625,0 3.9375,0l1.3125,0l1.3125,0" id="svg_20" stroke-width="1.5" fill="none"/>
  </g>
  <g stroke="null" id="svg_76">
   <g stroke="null" transform="matrix(0.2712673404150543,0,0,0.25173086214126184,0,20.18606893750075) " id="svg_25">
    <path stroke="null" id="svg_26" fill="#FFFFFF" d="m798.140769,1025.676712c56.56107,-3.92192 94.06422,23.7568 115.50763,57.48011c10.752,16.9088 21.30133,42.58986 21.34997,68.97621c0.05206,28.66944 -9.23562,53.49675 -21.34997,71.71328c-12.45099,18.72341 -28.55509,34.18795 -48.72107,44.34219c-33.70922,16.97408 -80.8192,17.43829 -111.67616,1.09482c-34.36458,-18.20074 -60.78634,-44.1792 -70.61845,-89.23136c-3.93472,-18.02922 -4.38699,-41.3248 1.09483,-61.312c1.2864,-4.68864 3.6241,-9.62304 5.47456,-14.23317c8.89258,-22.15424 24.02858,-41.4191 42.69952,-54.74347c7.5025,-5.35381 16.60416,-10.67861 24.63445,-14.23317c9.99168,-4.4224 26.81429,-8.82816 41.60469,-9.85344l0,0z"/>
    <path stroke="null" id="svg_27" fill="#000000" d="m905.429949,1155.321082c0,53.45622 -43.33483,96.78806 -96.79019,96.78806c-53.45536,0 -96.78933,-43.33184 -96.78933,-96.78806c0,-53.45493 43.33397,-96.79019 96.78933,-96.79019c53.45493,0 96.79019,43.33526 96.79019,96.79019l0,0z"/>
    <path stroke="null" id="svg_28" fill="#000000" d="m798.140769,1025.676712c56.56107,-3.92192 94.06422,23.7568 115.50763,57.48011c10.752,16.9088 21.30133,42.58986 21.34997,68.97621c0.05206,28.66944 -9.23562,53.49675 -21.34997,71.71328c-12.45099,18.72341 -28.55509,34.18795 -48.72107,44.34219c-33.70922,16.97408 -80.8192,17.43829 -111.67616,1.09482c-34.36458,-18.20074 -60.78634,-44.1792 -70.61845,-89.23136c-3.93472,-18.02922 -4.38699,-41.3248 1.09483,-61.312c1.2864,-4.68864 3.6241,-9.62304 5.47456,-14.23317c8.89258,-22.15424 24.02858,-41.4191 42.69952,-54.74347c7.5025,-5.35381 16.60416,-10.67861 24.63445,-14.23317c9.99168,-4.4224 26.81429,-8.82816 41.60469,-9.85344l0,0zm-19.16032,9.30645c-21.00864,5.44683 -36.41258,15.20512 -49.81589,25.72928c-19.32757,15.17568 -31.64885,36.35328 -38.86763,61.85942c-8.03114,28.37674 -2.87232,62.71573 8.21163,84.30421c11.49397,22.38805 26.92693,39.76661 48.72107,52.00597c21.2032,11.90742 51.02549,19.55328 82.11498,13.68576c27.6224,-5.21301 48.60118,-17.24629 65.69174,-35.03573c22.86592,-23.8016 41.24373,-67.64117 29.01418,-113.86539c-3.26912,-12.35413 -7.54304,-25.23008 -14.2336,-36.13056c-3.61472,-5.88885 -8.91904,-11.68213 -14.23317,-17.51765c-20.05589,-22.02496 -52.47104,-41.00438 -94.15851,-38.32022c-7.93344,0.51072 -14.9056,1.32992 -22.4448,3.28491l0,0z"/>
    <g stroke="null" id="svg_29" fill="#FFFFFF">
     <g stroke="null" id="svg_30">
      <path stroke="null" id="svg_31" d="m814.794509,1271.704076l111.84555,-111.84299l-0.60339,-0.60341l-111.84555,111.84299l0.60339,0.60341l0,0z"/>
      <path stroke="null" id="svg_32" d="m805.017019,1262.846466l112.33323,-112.33109l-0.6034,-0.6034l-112.33322,112.33109l0.60339,0.6034l0,0z"/>
      <path stroke="null" id="svg_33" d="m795.239099,1253.990156l112.82176,-112.82006l-0.60339,-0.6034l-112.82176,112.82005l0.60339,0.60341l0,0z"/>
      <path stroke="null" id="svg_34" d="m785.461179,1245.132546l113.30987,-113.30773l-0.6034,-0.6034l-113.30986,113.30773l0.60339,0.6034l0,0z"/>
      <path stroke="null" id="svg_35" d="m775.683689,1236.275376l113.79797,-113.79627l-0.60339,-0.6034l-113.79798,113.79627l0.6034,0.6034l0,0z"/>
      <path stroke="null" id="svg_36" d="m765.905769,1227.420336l114.28565,-114.28651l-0.6034,-0.60339l-114.28565,114.2865l0.6034,0.6034l0,0z"/>
      <path stroke="null" id="svg_37" d="m756.127849,1218.561026l114.77418,-114.77248l-0.60339,-0.6034l-114.77419,114.77248l0.6034,0.6034l0,0z"/>
      <path stroke="null" id="svg_38" d="m746.349929,1209.703856l115.26186,-115.26101l-0.60339,-0.6034l-115.26187,115.26101l0.6034,0.6034l0,0z"/>
      <path stroke="null" id="svg_39" d="m736.572009,1200.846676l115.74784,-115.74912l-0.6034,-0.60339l-115.74784,115.74912l0.6034,0.60339l0,0z"/>
      <path stroke="null" id="svg_40" d="m726.794509,1191.989086l116.23808,-116.2368l-0.60339,-0.6034l-116.23808,116.2368l0.60339,0.6034l0,0z"/>
      <path stroke="null" id="svg_41" d="m717.016589,1183.132336l116.72619,-116.72533l-0.60339,-0.6034l-116.72619,116.72533l0.60339,0.6034l0,0z"/>
      <path stroke="null" id="svg_42" d="m707.238669,1174.275166l117.21472,-117.21387l-0.60339,-0.6034l-117.21472,117.21387l0.60339,0.6034l0,0z"/>
      <path stroke="null" id="svg_43" d="m697.460749,1165.417566l117.70283,-117.70155l-0.60339,-0.6034l-117.70283,117.70155l0.60339,0.6034l0,0z"/>
      <path stroke="null" id="svg_44" d="m687.682829,1156.560386l118.19094,-118.18965l-0.6034,-0.6034l-118.19093,118.18965l0.60339,0.6034l0,0z"/>
     </g>
     <g stroke="null" id="svg_45">
      <path stroke="null" id="svg_46" d="m687.041459,1157.691049l114.08042,114.08554l0.60342,-0.60338l-114.08043,-114.08554l-0.60341,0.60338l0,0z"/>
      <path stroke="null" id="svg_47" d="m696.292869,1148.307369l114.30229,114.30784l0.60342,-0.60339l-114.3023,-114.30783l-0.60341,0.60338l0,0z"/>
      <path stroke="null" id="svg_48" d="m705.544279,1138.923689l114.52416,114.52928l0.60342,-0.60339l-114.52416,-114.52927l-0.60342,0.60338l0,0z"/>
      <path stroke="null" id="svg_49" d="m714.795699,1129.540009l114.74645,114.75157l0.60341,-0.60338l-114.74645,-114.75158l-0.60341,0.60339l0,0z"/>
      <path stroke="null" id="svg_50" d="m724.046679,1120.156329l114.96832,114.97301l0.60342,-0.60338l-114.96832,-114.97302l-0.60342,0.60339l0,0z"/>
      <path stroke="null" id="svg_51" d="m733.298099,1110.772649l115.19104,115.19488l0.60341,-0.60339l-115.19104,-115.19488l-0.60341,0.60339l0,0z"/>
      <path stroke="null" id="svg_52" d="m742.549509,1101.388969l115.41291,115.41675l0.60341,-0.60339l-115.41291,-115.41675l-0.60341,0.60339l0,0z"/>
      <path stroke="null" id="svg_53" d="m751.800499,1092.005289l115.6352,115.63819l0.60341,-0.60339l-115.6352,-115.63819l-0.60341,0.60339l0,0z"/>
      <path stroke="null" id="svg_54" d="m761.051909,1082.621609l115.8575,115.86006l0.6034,-0.6034l-115.85749,-115.86005l-0.60341,0.60339l0,0z"/>
      <path stroke="null" id="svg_55" d="m770.303329,1073.237929l116.07893,116.08107l0.6034,-0.60339l-116.07893,-116.08107l-0.6034,0.60339l0,0z"/>
      <path stroke="null" id="svg_56" d="m779.554739,1063.854249l116.30123,116.30379l0.6034,-0.60339l-116.30122,-116.30379l-0.60341,0.60339l0,0z"/>
      <path stroke="null" id="svg_57" d="m788.805729,1054.470569l116.52352,116.52523l0.6034,-0.60339l-116.52352,-116.52523l-0.6034,0.60339l0,0z"/>
      <path stroke="null" id="svg_58" d="m798.057139,1045.087319l116.74539,116.74709l0.6034,-0.60339l-116.74539,-116.74709l-0.6034,0.60339l0,0z"/>
      <path stroke="null" id="svg_59" d="m807.308979,1035.703639l116.96726,116.96853l0.6034,-0.60339l-116.96726,-116.96853l-0.6034,0.60339l0,0z"/>
     </g>
    </g>
    <path stroke="null" id="svg_60" fill="#000000" d="m889.014369,1070.565882c-10.06634,-10.06635 -22.44224,-19.13728 -37.22538,-24.63445c-15.32331,-5.69814 -32.65707,-10.50112 -53.1008,-8.75904c-32.56576,2.77589 -55.43083,17.38709 -72.80854,34.48832c-12.17194,11.97781 -21.32778,26.65557 -27.37152,43.79435c-8.87381,25.16522 -8.33536,54.86848 1.64224,80.47232c8.51072,21.83978 22.44054,39.45514 42.15211,53.1008c18.53056,12.82858 45.1264,22.77802 74.99776,20.25514c36.38272,-3.07285 63.00331,-21.73866 80.47232,-43.24693c4.46976,-5.50229 8.91392,-11.72181 11.49568,-19.15989c2.52971,-5.35936 3.76789,-9.00267 4.92715,-10.9487c4.85205,-10.87232 7.42272,-22.34368 8.2112,-35.0353c2.4256,-39.03659 -12.59392,-69.5279 -33.39222,-90.32662l0,0zm-10.72256,118.93248c-0.06954,0.14848 -0.13184,0.28672 -0.20437,0.4399c-1.8048,5.1648 -4.91392,9.48352 -8.03883,13.30474c-12.21717,14.93504 -30.83221,27.89632 -56.2752,30.03051c-20.89002,1.75104 -39.48885,-5.15712 -52.44714,-14.06507c-11.26059,-7.74101 -19.82038,-17.32309 -25.82272,-28.83882c-0.36608,-0.69291 -3.85195,-8.72406 -3.86219,-9.07734c-4.7552,-14.74944 -5.16779,-38.46613 -0.28715,-52.69845c3.25718,-9.49888 8.68566,-19.77643 15.87542,-27.91893c9.92682,-11.2431 19.8609,-18.44736 35.58314,-23.53963c7.17867,-2.32533 13.60512,-4.69205 22.44438,-4.92672c21.5552,-0.57387 43.50506,9.10421 55.29045,19.70731c10.83051,9.74378 23.17397,28.72405 26.27712,46.53141c3.1936,18.32832 -0.21461,36.22315 -8.53291,51.05109l0,0z"/>
    <g stroke="null" id="svg_61">
     <path stroke="null" id="svg_62" fill="#FFFFFF" d="m840.825823,1207.079389c-5.30773,0 -9.96565,-3.36128 -11.59125,-8.36438l-5.91189,-18.01301l-29.5744,0l-5.49291,17.84875c-1.65803,5.10037 -6.35136,8.51456 -11.6864,8.51456c-1.28085,0 -2.55317,-0.20267 -3.78155,-0.60118c-6.37696,-1.91445 -9.99722,-8.77824 -8.04352,-15.29173l24.96256,-79.07115c1.62091,-5.02997 6.39275,-8.53845 11.60534,-8.53845l13.2736,0c5.24202,0 10.01344,3.44875 11.60277,8.38699l26.25237,79.0417c2.0992,6.4623 -1.37685,13.39947 -7.74442,15.47222c-1.2591,0.40874 -2.56086,0.61568 -3.8703,0.61568l0,0l0,0z"/>
     <path stroke="null" id="svg_63" fill="#000000" d="m840.825823,1205.372719c-4.75483,0 -8.92016,-3.00577 -10.3739,-7.47991l-5.91307,-18.01663l-0.2891,-0.88085l-0.92707,0l-29.5744,0l-0.94533,0l-0.27805,0.90351l-5.49291,17.84875c-1.47991,4.55195 -5.68046,7.61105 -10.46302,7.61105c-1.14541,0 -2.2845,-0.18118 -3.38656,-0.53871c-5.72585,-1.7193 -8.96339,-7.86905 -7.21247,-13.70645l24.95714,-79.05355c1.44855,-4.49504 5.72912,-7.6438 10.38472,-7.6438l13.2736,0c4.68826,0 8.96592,3.09202 10.38432,7.49914l26.25607,79.05302c1.87895,5.78434 -1.2324,11.9983 -6.92587,13.85161c-1.13046,0.36699 -2.29885,0.55282 -3.4741,0.55282l0,0zm0,2.56c1.44434,0 2.87944,-0.22825 4.26553,-0.67823c7.04572,-2.29349 10.88238,-9.95601 8.56657,-17.08512l-26.255,-79.04971c-1.7565,-5.45783 -7.0215,-9.26353 -12.81752,-9.26353l-13.2736,0c-5.77182,0 -11.03339,3.87037 -12.82364,9.42586l-24.96487,79.0784c-2.15944,7.19892 1.83297,14.78258 8.89609,16.90302c1.32955,0.43166 2.73517,0.65523 4.14959,0.65523c5.89272,0 11.07525,-3.77424 12.9037,-9.39884l5.49898,-17.86798l-1.22337,0.90351l29.5744,0l-1.21618,-0.88085l5.9119,18.01302c1.79631,5.5285 6.94686,9.24522 12.80742,9.24522l0,0z"/>
    </g>
    <g stroke="null" id="svg_64" fill="#FFFFFF">
     <path stroke="null" id="svg_65" d="m742.791908,1078.363013l-0.03115,-0.04224c-3.11296,-4.26624 -2.19946,-10.23446 2.38507,-13.58038c4.58453,-3.34549 10.47381,-2.4064 13.58677,1.85942l0.03115,0.04224c3.11296,4.26624 2.19947,10.23488 -2.38507,13.58037c-4.58453,3.34549 -10.47381,2.40683 -13.58677,-1.85941l0,0zm11.80032,-8.61142l-0.03115,-0.04224c-1.56416,-2.14357 -4.47658,-2.88085 -6.7473,-1.22368c-2.24982,1.64182 -2.42475,4.56662 -0.86059,6.71062l0.03115,0.04224c1.56458,2.14357 4.47658,2.88085 6.7264,1.23904c2.27114,-1.65718 2.44608,-4.58198 0.88149,-6.72598l0,0z"/>
     <path stroke="null" id="svg_66" d="m772.804918,1050.400553l4.6784,-1.50101l13.11531,15.24651l-5.20405,1.66954l-2.27926,-2.71786l-6.75541,2.16746l-0.24747,3.52896l-5.10378,1.63755l1.79626,-20.03115l0,0zm7.69707,9.36875l-3.54901,-4.35285l-0.37931,5.61322l3.92832,-1.26037l0,0z"/>
     <path stroke="null" id="svg_67" d="m799.024018,1054.987223l0.04096,-10.32661l5.17632,0.02048l-0.04054,10.22165c-0.01066,2.65387 1.32438,3.92021 3.37408,3.92875c2.04971,0.0081 3.39456,-1.1951 3.40438,-3.77003l0.04138,-10.35264l5.17632,0.02048l-0.04053,10.1952c-0.02347,5.93835 -3.42315,8.52651 -8.65237,8.5056c-5.2288,-0.02133 -8.50262,-2.68843 -8.48,-8.44288l0,0z"/>
     <path stroke="null" id="svg_68" d="m834.891318,1053.182853l-5.27701,-1.61067l1.30389,-4.27221l15.42955,4.70912l-1.30389,4.27221l-5.27702,-1.61024l-4.06485,13.31883l-4.87509,-1.48779l4.06442,-13.31925l0,0z"/>
     <path stroke="null" id="svg_69" d="m860.129938,1057.970473l4.24362,2.82411l-3.81354,5.73099l5.44682,3.62496l3.81398,-5.73142l4.24362,2.82411l-10.19008,15.31264l-4.24405,-2.82411l3.87243,-5.81888l-5.44726,-3.62496l-3.872,5.81888l-4.24362,-2.8241l10.19008,-15.31222l0,0z"/>
    </g>
    <g stroke="null" id="svg_70" fill="#FFFFFF">
     <path stroke="null" id="svg_71" d="m875.120438,1225.362045l0.03243,0.04139c3.27424,4.14421 2.58901,10.144 -1.86453,13.66229c-4.45355,3.51829 -10.37483,2.80491 -13.64907,-1.33931l-0.03243,-0.04138c-3.27424,-4.14464 -2.58858,-10.144 1.86454,-13.6623c4.45354,-3.51786 10.37482,-2.8049 13.64906,1.33931l0,0zm-11.4641,9.05685l0.03242,0.04139c1.64523,2.08256 4.58368,2.70805 6.78998,0.96512c2.18538,-1.72672 2.24896,-4.65621 0.6033,-6.73877l-0.03242,-0.04139c-1.6448,-2.08256 -4.58368,-2.70805 -6.76907,-0.98133c-2.20629,1.74293 -2.26944,4.67242 -0.62421,6.75498l0,0z"/>
     <path stroke="null" id="svg_72" d="m846.346468,1254.502955l-4.608,1.70538l-13.77365,-14.65429l5.12554,-1.89739l2.39702,2.61547l6.65344,-2.46272l0.09173,-3.53621l5.02699,-1.8607l-0.91307,20.09046l0,0zm-8.10197,-9.02059l3.73717,4.192l0.13184,-5.62432l-3.86901,1.43232l0,0z"/>
     <path stroke="null" id="svg_73" d="m819.970358,1251.005565l0.45526,10.31637l-5.1712,0.22827l-0.45099,-10.21141c-0.11691,-2.65131 -1.51125,-3.85195 -3.55883,-3.7615c-2.04757,0.09046 -3.33312,1.35723 -3.21962,3.9296l0.45653,10.3424l-5.1712,0.22827l-0.44971,-10.18496c-0.26197,-5.93237 3.00971,-8.68096 8.23339,-8.91136c5.22411,-0.23083 8.62251,2.27541 8.87637,8.02432l0,0z"/>
     <path stroke="null" id="svg_74" d="m784.037778,1254.378795l5.32778,1.43829l-1.16437,4.31275l-15.57803,-4.2048l1.16438,-4.31318l5.32778,1.4383l3.62966,-13.44683l4.92202,1.32864l-3.62922,13.44683l0,0z"/>
     <path stroke="null" id="svg_75" d="m758.855478,1250.631375l-4.3729,-2.62058l3.5392,-5.9055l-5.61195,-3.36384l-3.5392,5.9055l-4.37248,-2.62059l9.45664,-15.77771l4.37248,2.62102l-3.59339,5.99552l5.61238,3.36384l3.59338,-5.99552l4.37248,2.62101l-9.45664,15.77685l0,0z"/>
    </g>
   </g>
  </g>

  <g stroke="null" id="svg_91">
   <g transform="matrix(0.2887736215039113,0,0,0.38350610600681184,-843.1747805865173,-904.7068097741676) " id="svg_80" fill-rule="evenodd" fill="none">
    <g stroke="null" id="svg_81">
     <path stroke="null" id="svg_82" fill="#8E714E" d="m4274.960842,2867.948982c-0.46106,0.09239 -0.92212,1.10775 -0.92212,1.6612c-0.09238,3.69106 -0.18476,13.47345 -0.18476,20.11737c0,0.18477 0.27629,0.55344 0.55344,0.55344c1.38404,0.09239 4.70643,0.18477 7.56689,0.18477c3.96822,0 6.27524,-0.55344 7.56776,-1.10689c3.32152,-1.66119 4.89033,-5.26073 4.89033,-9.22895c0,-8.95093 -6.27523,-12.36571 -15.59571,-12.36571c-0.64582,-0.09152 -2.49092,-0.09152 -3.87583,0.18477l0,0l0,0zm23.8093,41.25011c0,-9.1357 -6.73716,-14.21167 -18.9181,-14.21167c-0.55344,0 -4.42927,-0.09239 -5.35226,0.09238c-0.27715,0.09239 -0.64582,0.27716 -0.64582,0.55431c0,6.55153 -0.09239,16.97975 0.18476,21.03949c0.18391,1.75358 1.47643,4.24537 3.04524,4.98358c1.66033,0.92298 5.44464,1.10689 8.02795,1.10689c7.29061,0 13.65823,-4.05974 13.65823,-13.56498l0,0l0,0zm-42.63415,-46.32521c0.92212,0 3.69107,0.27629 10.7969,0.27629c6.7363,0 12.08855,-0.1839 18.64094,-0.1839c8.02796,0 19.10201,2.86046 19.10201,14.85663c0,5.90656 -4.15299,10.61299 -9.59763,12.92001c-0.27629,0.09239 -0.27629,0.27629 0,0.36868c7.75166,1.93834 14.58121,6.73716 14.58121,15.78048c0,8.85941 -5.53703,14.48796 -13.56584,17.99511c-4.8912,2.12226 -10.98167,2.86047 -17.16452,2.86047c-4.70643,0 -17.34843,-0.55344 -24.36188,-0.36868c-0.73821,-0.27715 0.64583,-3.59954 1.29166,-4.15298c1.66119,-0.09239 2.95285,-0.18477 4.70643,-0.73821c2.49179,-0.64583 2.76808,-1.38404 3.13762,-5.16749c0.18477,-3.23 0.18477,-14.67359 0.18477,-22.79393c0,-11.16644 0.09238,-18.73333 0,-22.42439c-0.09239,-2.86047 -1.10775,-3.78345 -3.13762,-4.33776c-1.56881,-0.27629 -4.15299,-0.64582 -6.27524,-0.92211c-0.46192,-0.46193 1.10689,-3.59954 1.66119,-3.96822l0,0l0,0zm-53.24713,57.39926c2.2155,1.75271 6.55239,2.49093 10.42822,2.49093c4.98358,0 9.9663,-0.92212 14.76511,-5.25987c4.8912,-4.42928 8.30511,-11.25796 8.30511,-22.14724c0,-10.42823 -3.96822,-18.9181 -12.08855,-23.90082c-4.61405,-2.86133 -10.52061,-4.0606 -17.34929,-4.0606c-2.02987,0 -3.96822,0.09238 -5.16749,0.64583c-0.27715,0.18477 -0.92298,1.01536 -0.92298,1.47642c-0.18477,1.84597 -0.18477,16.05677 -0.18477,24.36274c0,8.58226 0,20.57843 0.18477,21.96247c0,1.38491 0.64583,3.50716 2.02987,4.43014l0,0l0,0zm-20.94797,-57.39926c1.75358,0 8.48988,0.27629 11.71988,0.27629c5.81418,0 9.9663,-0.27629 20.94796,-0.27629c9.22809,0 16.97976,2.49179 22.51678,7.19736c6.7363,5.81418 10.24345,13.84299 10.24345,23.62452c0,13.93452 -6.36762,21.96334 -12.73524,26.57738c-6.36676,4.70643 -14.67273,7.47451 -26.48413,7.47451c-6.27524,0 -17.07213,-0.18477 -26.02393,-0.27716l-0.09239,0c-0.46105,-0.82973 0.73822,-4.05973 1.47643,-4.15212c2.39941,-0.27715 3.04523,-0.36954 4.24537,-0.83059c1.93748,-0.73822 2.30702,-1.75358 2.58417,-5.16749c0.27629,-6.36762 0.18391,-14.0269 0.18391,-22.70155c0,-6.18285 0.09238,-18.27227 -0.09238,-22.1481c-0.27629,-3.22914 -1.66034,-4.05973 -4.42928,-4.61404c-1.38404,-0.27629 -3.23,-0.64583 -5.81331,-0.92212c-0.36954,-0.64669 1.29165,-3.50716 1.75271,-4.0606l0,0l0,0z"/>
     <path stroke="null" id="svg_83" fill="#442D22" d="m4070.280862,2923.871822c-2.30703,-0.27716 -3.96822,-0.64583 -5.99895,-1.56881c-0.27629,-0.18477 -0.73821,-1.10689 -0.73821,-1.47643c-0.18477,-3.23 -0.18477,-12.45809 -0.18477,-18.64094c0,-4.98358 -0.82974,-9.32047 -2.95285,-12.36571c-2.49179,-3.50716 -6.09047,-5.53702 -10.70452,-5.53702c-4.0606,0 -9.50524,2.76894 -14.0269,6.64477c-0.09238,0.09152 -0.83059,0.73821 -0.73821,-0.27715c0,-1.01537 0.18477,-3.04524 0.27716,-4.42928c0.09238,-1.29252 -0.64583,-1.93834 -0.64583,-1.93834c-2.95372,1.47642 -11.25882,3.41477 -14.30406,3.69106c-2.21463,0.46192 -2.76808,2.58417 -0.46106,3.32239l0.09239,0c2.49093,0.73821 4.15212,1.56881 5.44378,2.3994c0.92298,0.73822 0.83059,1.75358 0.83059,2.58418c0.09239,6.92106 0.09239,17.53319 -0.1839,23.34737c-0.09239,2.30702 -0.73822,3.13676 -2.39941,3.50629l0.18391,-0.09238c-1.29166,0.27715 -2.30703,0.55344 -3.87584,0.73821c-0.55344,0.55345 -0.55344,3.50716 0,4.15299c1.01537,0 6.36763,-0.27716 10.79777,-0.27716c6.09046,0 9.22808,0.27716 10.79689,0.27716c0.64583,-0.73821 0.8306,-3.50716 0.46106,-4.15299c-1.75358,-0.09238 -3.04523,-0.27629 -4.2445,-0.64583c-1.6612,-0.36953 -2.12312,-1.19927 -2.2155,-3.13762c-0.18391,-4.89119 -0.18391,-15.22617 -0.18391,-22.23962c0,-1.93834 0.55344,-2.86133 1.10689,-3.41477c2.12225,-1.8451 5.53702,-3.13762 8.58226,-3.13762c2.95285,0 4.89119,0.92298 6.36762,2.12312c2.02987,1.66033 2.6757,4.05974 2.95285,5.81331c0.46106,3.96822 0.27715,11.81227 0.27715,18.64095c0,3.69106 -0.27715,4.61404 -1.66119,5.0751c-0.64583,0.27715 -2.30702,0.64669 -4.24537,0.8306c-0.64583,0.64583 -0.46106,3.50716 0,4.15298c2.67656,0 5.81418,-0.27715 10.42822,-0.27715c5.72093,0 9.41286,0.27715 10.88928,0.27715c0.46106,-0.55344 0.64583,-3.23 0.27629,-3.96821l0.00087,0l0,0zm25.56201,-35.25116c-4.8912,0 -7.93644,3.78345 -7.93644,9.68915c0,5.99808 2.6757,12.91915 10.24346,12.91915c1.29165,0 3.69106,-0.55345 4.79795,-1.8451c1.75358,-1.6612 2.95371,-4.98358 2.95371,-8.48988c0,-7.65928 -3.78431,-12.27332 -10.05868,-12.27332l0,0l0,0zm-0.64669,40.78818c-1.8451,0 -3.13762,0.55345 -3.96736,1.01537c-3.87669,2.49093 -5.62941,4.89033 -5.62941,7.75166c0,2.6757 1.01451,4.79795 3.23001,6.64391c2.67569,2.30702 6.36676,3.41478 11.07318,3.41478c9.41286,0 13.56584,-5.07597 13.56584,-10.05869c0,-3.50716 -1.75357,-5.81418 -5.35225,-7.10583c-2.58418,-1.10775 -7.29061,-1.6612 -12.92001,-1.6612l0,0l0,0zm0.64669,23.9932c-5.62941,0 -9.69001,-1.20013 -13.19631,-3.87583c-3.41477,-2.58417 -4.89119,-6.46 -4.89119,-9.1357c0,-0.73821 0.18476,-2.76895 1.84596,-4.61405c1.0145,-1.10775 3.22914,-3.23 8.48987,-6.82868c0.18391,-0.09238 0.27629,-0.18477 0.27629,-0.36953c0,-0.18477 -0.18477,-0.36954 -0.36867,-0.46106c-4.33775,-1.6612 -5.62941,-4.33776 -5.99895,-5.81418l0,-0.18477c-0.09152,-0.55345 -0.27629,-1.10689 0.55431,-1.6612c0.64583,-0.46106 1.56881,-1.0145 2.58331,-1.66033c1.56881,-0.92298 3.23,-1.93834 4.24537,-2.76894c0.18477,-0.18477 0.18477,-0.36867 0.18477,-0.55344c0,-0.18477 -0.18477,-0.36954 -0.36954,-0.46106c-6.45914,-2.12312 -9.68915,-6.92193 -9.68915,-14.11929c0,-4.70643 2.12226,-8.9518 5.9057,-11.62749c2.58418,-2.03073 9.04332,-4.52166 13.28869,-4.52166l0.27716,0c4.33689,0.09152 6.73629,1.0145 10.1502,2.21464c1.84596,0.64582 3.59954,0.92211 5.99895,0.92211c3.59868,0 5.16749,-1.10688 6.45914,-2.39854c0.09239,0.18391 0.27716,0.64583 0.36954,1.8451c0.09238,1.20014 -0.27715,2.95285 -1.20013,4.24537c-0.73822,1.0145 -2.39855,1.75358 -4.05974,1.75358l-0.46192,0c-1.6612,-0.18477 -2.39941,-0.36954 -2.39941,-0.36954l-0.36868,0.18477c-0.09238,0.18477 0,0.36867 0.09239,0.64583l0.09238,0.18477c0.18391,0.83059 0.55345,3.32152 0.55345,3.96821c0,7.5669 -3.04524,10.88842 -6.27524,13.38021c-3.13762,2.30702 -6.7363,3.78345 -10.7969,4.15299c-0.09238,0 -0.46106,0 -1.29165,0.09238c-0.46193,0 -1.10775,0.09239 -1.20014,0.09239l-0.09238,0c-0.73822,0.1839 -2.58331,1.10688 -2.58331,2.67569c0,1.38404 0.83059,3.04524 4.79794,3.32239c0.8306,0.09238 1.6612,0.09238 2.58418,0.18477c5.25987,0.36867 11.81226,0.83059 14.8575,1.8451c4.2445,1.56881 6.92106,5.35225 6.92106,9.87478c0,6.82868 -4.89119,13.1963 -13.01153,17.16365c-3.96822,1.75358 -7.93643,2.67656 -12.27332,2.67656l0,0l0,0zm52.60044,-64.32032c-1.93835,0 -3.69192,0.46106 -4.98358,1.38404c-3.59868,2.21464 -5.44464,6.64478 -5.44464,13.10392c0,12.08942 6.09047,20.57929 14.76511,20.57929c2.58418,0 4.61405,-0.73821 6.36762,-2.21464c2.6757,-2.2155 4.0606,-6.64477 4.0606,-12.82763c0,-11.99616 -5.99894,-20.02498 -14.76511,-20.02498l0,0l0,0zm1.6612,39.49653c-15.6881,0 -21.31751,-11.53511 -21.31751,-22.33201c0,-7.5669 3.04524,-13.38107 9.1357,-17.53406c4.33776,-2.6757 9.50525,-4.15212 14.11929,-4.15212c11.99617,0 20.39452,8.58226 20.39452,20.94797c0,8.39749 -3.32239,15.0414 -9.69001,19.102c-3.04523,2.02987 -8.3051,3.96822 -12.64286,3.96822l0.00087,0l0,0zm-164.44612,-39.49653c-1.93834,0 -3.69106,0.46106 -4.98358,1.38404c-3.59868,2.21464 -5.44464,6.64478 -5.44464,13.10392c0,12.08942 6.09047,20.57929 14.76511,20.57929c2.58418,0 4.61405,-0.73821 6.36763,-2.21464c2.67569,-2.2155 4.0606,-6.64477 4.0606,-12.82763c0,-11.99616 -5.90657,-20.02498 -14.76512,-20.02498l0,0l0,0zm1.6612,39.49653c-15.6881,0 -21.31751,-11.53511 -21.31751,-22.33201c0,-7.5669 3.04524,-13.38107 9.13571,-17.53406c4.33775,-2.6757 9.50524,-4.15212 14.11928,-4.15212c11.99703,0 20.39452,8.58226 20.39452,20.94797c0,8.39749 -3.32238,15.0414 -9.69001,19.102c-2.95284,2.02987 -8.21272,3.96822 -12.64199,3.96822l0,0l0,0zm-105.47805,-0.92299c-0.18476,-0.27629 -0.36953,-1.10688 -0.27715,-2.12225c0,-0.73821 0.18477,-1.20013 0.27715,-1.38404c1.93749,-0.27715 2.95285,-0.55431 4.05974,-0.8306c1.84596,-0.46192 2.58418,-1.47642 2.67656,-3.78344c0.27715,-5.53703 0.27715,-16.05764 0.18477,-23.34738l0,-0.18477c0,-0.83059 0,-1.84596 -1.01537,-2.58417c-1.47642,-0.92212 -3.23,-1.75272 -5.53702,-2.39941c-0.8306,-0.27629 -1.38404,-0.73821 -1.29166,-1.29165c0,-0.55345 0.55345,-1.19927 1.75358,-1.38404c3.04524,-0.27716 10.9808,-2.21464 14.11842,-3.59868c0.18477,0.1839 0.46193,0.73821 0.46193,1.47642l-0.09239,1.01451c-0.09238,1.01536 -0.18477,2.2155 -0.18477,3.41477c0,0.36867 0.36954,0.64583 0.73821,0.64583c0.18477,0 0.36954,-0.09239 0.55431,-0.18477c5.9057,-4.61405 11.25796,-6.27524 14.02604,-6.27524c4.52252,0 8.02882,2.12312 10.70537,6.55239c0.18391,0.27715 0.36868,0.36868 0.64583,0.36868c0.18477,0 0.46106,-0.09153 0.55345,-0.27629c5.44464,-4.15299 10.88928,-6.64478 14.48796,-6.64478c8.58225,0 13.65822,6.36762 13.65822,17.16452c0,3.04523 0,7.01345 -0.09238,10.61299c0,3.22914 -0.09239,6.18285 -0.09239,8.30511c0,0.46106 0.64583,1.93748 1.6612,2.21463c1.29165,0.64583 3.04523,0.92299 5.35225,1.29166l0.09239,0c0.18477,0.64583 -0.18477,3.04523 -0.55345,3.50716c-0.5543,0 -1.3849,0 -2.30702,-0.09239c-1.75358,-0.09238 -4.24537,-0.18477 -7.01345,-0.18477c-5.72179,0 -8.67464,0.09239 -11.53597,0.27716c-0.18391,-0.73821 -0.27629,-2.95285 0,-3.50716c1.66119,-0.27629 2.49179,-0.55344 3.50716,-0.8306c1.84596,-0.55344 2.30702,-1.38404 2.3994,-3.78344c0,-1.75272 0.36868,-16.7026 -0.18477,-20.30214c-0.55344,-3.69106 -3.32239,-8.02795 -9.41285,-8.02795c-2.30703,0 -5.9057,0.92298 -9.41286,3.59867c-0.18391,0.18477 -0.36868,0.64583 -0.36868,0.92298l0,0.09239c0.36868,1.93748 0.36868,4.15298 0.36868,7.56689l0,5.99809c0,4.15298 -0.09239,8.02881 0,10.98166c0,2.03073 1.20013,2.49179 2.2155,2.86133c0.55344,0.09152 0.92212,0.18391 1.38404,0.27629c0.8306,0.18477 1.66119,0.36954 2.95285,0.64583c0.18477,0.36954 0.18477,1.56881 -0.09238,2.58418c-0.09239,0.55344 -0.27716,0.83059 -0.36868,0.92298c-3.13762,-0.09239 -6.36762,-0.18477 -11.07405,-0.18477c-1.38404,0 -3.78345,0.09238 -5.81418,0.09238c-1.66119,0 -3.23,0.09239 -4.15212,0.09239c-0.09238,-0.18477 -0.27715,-0.8306 -0.27715,-1.84597c0,-0.83059 0.18477,-1.47642 0.36954,-1.66119c0.46105,-0.09238 0.82973,-0.18391 1.29165,-0.18391c1.10689,-0.18476 2.02987,-0.36953 2.95285,-0.5543c1.56881,-0.46106 2.12225,-1.29166 2.21464,-3.32153c0.27715,-4.61404 0.55344,-17.81034 -0.09239,-21.13273c-1.10688,-5.35226 -4.15212,-8.02882 -9.04331,-8.02882c-2.86047,0 -6.46001,1.38404 -9.41286,3.59954c-0.46106,0.36868 -0.8306,1.29166 -0.8306,2.12226l0,5.44464c0,6.64391 0,14.94988 0.09239,18.54856c0.09238,1.10688 0.46106,2.3994 2.58417,2.86046c0.46106,0.09239 1.19927,0.27716 2.12226,0.36954l1.66119,0.27629c0.18477,0.55431 0.09238,2.76895 -0.27715,3.50716c-0.92299,0 -2.02987,-0.09239 -3.32239,-0.09239c-1.93749,-0.09238 -4.42928,-0.18477 -7.19736,-0.18477c-3.23,0 -5.53702,0.09239 -7.38299,0.18477c-1.29165,-0.18477 -2.30702,-0.18477 -3.41391,-0.18477l0,0l0,0z"/>
     <g stroke="null" id="svg_84">
      <path stroke="null" id="svg_85" fill="#FFFFFF" d="m3833.300842,2949.803362l-3.78345,-1.29251c0,0 0.46192,-19.28678 -6.45914,-20.67082c-4.61405,-5.35225 0.73821,-227.01285 17.34842,-0.73821c0,0 -5.72093,2.86047 -6.7363,7.75166c-1.10775,4.79882 -0.36953,14.94988 -0.36953,14.94988l0,0l0,0z"/>
      <path stroke="null" id="svg_86" fill="#A6A385" d="m3833.300842,2949.803362l-3.78345,-1.29251c0,0 0.46192,-19.28678 -6.45914,-20.67082c-4.61405,-5.35225 0.73821,-227.01285 17.34842,-0.73821c0,0 -5.72093,2.86047 -6.7363,7.75166c-1.10775,4.79882 -0.36953,14.94988 -0.36953,14.94988l0,0l0,0z"/>
      <path stroke="null" id="svg_87" fill="#FFFFFF" d="m3835.331572,2931.162422c0,0 33.1289,-21.77856 25.37724,-67.08927c-7.47451,-32.94413 -25.10095,-43.74103 -27.03844,-47.89401c-2.12225,-2.95285 -4.15298,-8.12034 -4.15298,-8.12034l1.3849,91.63505c0,0.09238 -2.86133,28.0538 4.42928,31.46857"/>
      <path stroke="null" id="svg_88" fill="#499D4A" d="m3835.331572,2931.162422c0,0 33.1289,-21.77856 25.37724,-67.08927c-7.47451,-32.94413 -25.10095,-43.74103 -27.03844,-47.89401c-2.12225,-2.95285 -4.15298,-8.12034 -4.15298,-8.12034l1.3849,91.63505c0,0.09238 -2.86133,28.0538 4.42928,31.46857"/>
      <path stroke="null" id="svg_89" fill="#FFFFFF" d="m3827.579912,2932.361692c0,0 -31.09904,-21.22512 -29.25308,-58.59853c1.75272,-37.37427 23.71605,-55.73806 27.96056,-59.06045c2.76894,-2.95285 2.86133,-4.0606 3.04609,-7.01345c1.93749,4.15299 1.56881,62.10569 1.8451,68.93437c0.8306,26.30022 -1.47642,50.75534 -3.59867,55.73806l0,0l0,0z"/>
      <path stroke="null" id="svg_90" fill="#58AA50" d="m3827.579912,2932.361692c0,0 -31.09904,-21.22512 -29.25308,-58.59853c1.75272,-37.37427 23.71605,-55.73806 27.96056,-59.06045c2.76894,-2.95285 2.86133,-4.0606 3.04609,-7.01345c1.93749,4.15299 1.56881,62.10569 1.8451,68.93437c0.8306,26.30022 -1.47642,50.75534 -3.59867,55.73806l0,0l0,0z"/>
     </g>
    </g>
   </g>
  </g>
  <g id="svg_97">
   <g transform="matrix(0.2712673404150543,0,0,0.2712673404150543,0,0) " id="svg_95">
    <path id="svg_96" fill="#764ABC" d="m1833.598689,372.619101c9.44736,-0.97735 16.61431,-9.12191 16.28854,-18.89539c-0.32577,-9.77348 -8.47004,-17.59226 -18.24316,-17.59226l-0.65154,0c-10.0989,0.32578 -17.9174,8.79613 -17.59162,18.89539c0.32577,4.88674 2.28039,9.12191 5.21233,12.05396c-11.07621,21.82743 -28.01629,37.79078 -53.42641,51.14787c-17.26585,9.12192 -35.18324,12.37974 -53.10063,10.09926c-14.65968,-1.95469 -26.06166,-8.47035 -33.22862,-19.22117c-10.42466,-15.96335 -11.40198,-33.22983 -2.60616,-50.49631c6.18964,-12.37974 15.96276,-21.50166 22.15241,-26.06261c-1.30309,-4.23518 -3.25771,-11.40239 -4.23502,-16.61492c-47.23676,34.20718 -42.3502,80.46831 -28.01629,102.29575c10.75044,16.28913 32.57708,26.3884 56.68411,26.3884c6.51542,0 13.03083,-0.65157 19.54625,-2.28048c41.69866,-8.14457 73.29842,-32.90405 91.21581,-69.71749zm57.33566,-40.39704c-24.75858,-28.99466 -61.24491,-44.95801 -102.94356,-44.95801l-5.21234,0c-2.93193,-5.86409 -9.12158,-9.77348 -15.96276,-9.77348l-0.65154,0c-10.0989,0.32579 -17.9174,8.79613 -17.59163,18.8954c0.32578,9.77347 8.47004,17.59226 18.24317,17.59226l0.65154,0c7.16695,-0.32578 13.3566,-4.88674 15.96277,-11.07661l5.86387,0c24.75858,0 48.21407,7.16722 69.38917,21.17587c16.28854,10.75083 28.01629,24.75948 34.5317,41.70018c5.5381,13.68287 5.21233,27.03996 -0.65154,38.44235c-9.12158,17.26648 -24.43281,26.71417 -44.63059,26.71417c-13.03083,0 -25.41012,-3.90939 -31.92554,-6.84143c-3.58348,3.25783 -10.09889,8.47035 -14.65968,11.72817c14.00814,6.51566 28.34205,10.09927 42.02443,10.09927c31.27399,0 54.40371,-17.26648 63.19952,-34.53296c9.44735,-18.8954 8.79581,-51.47366 -15.63699,-79.16518zm-165.49155,45.93535c0.32577,9.77348 8.47004,17.59226 18.24316,17.59226l0.65154,0c10.0989,-0.32578 17.9174,-8.79613 17.59163,-18.89539c-0.32577,-9.77348 -8.47004,-17.59227 -18.24317,-17.59227l-0.65154,0c-0.65154,0 -1.62885,0 -2.28039,0.32579c-13.3566,-22.15322 -18.89471,-46.26114 -16.94008,-72.32375c1.30308,-19.54696 7.81849,-36.48765 19.22047,-50.49631c9.44735,-12.05395 27.69052,-17.91804 40.0698,-18.24382c34.53171,-0.65157 49.19139,42.35174 50.1687,59.61822c4.23502,0.97735 11.40198,3.25782 16.28854,4.88674c-3.90925,-52.77679 -36.48633,-80.14253 -67.76032,-80.14253c-29.31937,0 -56.35834,21.17587 -67.10877,52.451c-14.98546,41.70018 -5.21234,81.77144 13.03083,113.37236c-1.62886,2.28048 -2.60617,5.86409 -2.2804,9.4477z"/>
   </g>
  </g>
  <g id="svg_100">
   <path stroke="#000" d="m426.5,82c0,1 0,3 0,7c0,3 0,5 0,9l0,2l0,1l0,1" id="svg_98" stroke-width="1.5" fill="none"/>
   <path stroke="#000" d="m415.5,92c1.3125,0 2.625,0 5.25,0c1.3125,0 2.625,0 3.9375,0c1.3125,0 3.9375,0 5.25,0c1.3125,0 2.625,0 3.9375,0l1.3125,0l1.3125,0" id="svg_99" stroke-width="1.5" fill="none"/>
  </g>
  <g stroke="null" id="svg_107">
   <g stroke="null" transform="matrix(0.2712673404150543,0,0,0.2555735375960597,0,2.9175585973825946) " id="svg_104" fill="#28A3B2">
    <path stroke="null" id="svg_105" d="m747.879048,452.521181c0,0 -97.43233,-155.04306 103.00058,-254.87772l0,254.87772l-103.00058,0"/>
    <path stroke="null" id="svg_106" d="m881.911258,452.521181l0,-157.97537c0,0 31.99046,52.20635 97.00346,157.97537l-97.00346,0"/>
   </g>
  </g>
  <g stroke="null" id="svg_110">
   <path stroke="#000" d="m216.97619,195c0,1 0,3 0,7c0,3 0,5 0,9l0,2l0,1l0,1" id="svg_108" stroke-width="1.5" fill="none"/>
   <path stroke="#000" d="m206.5,205c1.25,0 2.5,0 5,0c1.25,0 2.5,0 3.75,0c1.25,0 3.75,0 5,0c1.25,0 2.5,0 3.75,0l1.25,0l1.25,0" id="svg_109" stroke-width="1.5" fill="none"/>
  </g>
  <defs>
   <linearGradient id="svg_120" y2="49.4813953%" x2="99.9467772%" y1="49.4813953%" x1="-0.0397790055%">
    <stop offset="0%" stop-color="#6C91B0"/>
    <stop offset="50%" stop-color="#193A62"/>
    <stop offset="100%" stop-color="#6C91B0"/>
   </linearGradient>
   <linearGradient id="svg_119" y2="49.7960245%" x2="100.072953%" y1="49.7960245%" x1="0%">
    <stop offset="0%" stop-color="#92BCDA"/>
    <stop offset="15.33%" stop-color="#739EC2"/>
    <stop offset="48.72%" stop-color="#245184"/>
    <stop offset="50%" stop-color="#214E82"/>
    <stop offset="51.28%" stop-color="#245184"/>
    <stop offset="84.67%" stop-color="#739EC2"/>
    <stop offset="100%" stop-color="#92BCDA"/>
   </linearGradient>
   <linearGradient id="svg_118" y2="50.2375%" x2="100.14856%" y1="50.2375%" x1="0.0621399177%">
    <stop offset="0%" stop-color="#5992CA"/>
    <stop offset="100%" stop-color="#B2D4EB"/>
   </linearGradient>
   <linearGradient id="svg_117" y2="50.2375%" x2="-0.0670781893%" y1="50.2375%" x1="100.026749%">
    <stop offset="0%" stop-color="#5992CA"/>
    <stop offset="100%" stop-color="#B2D4EB"/>
   </linearGradient>
  </defs>
  <g stroke="null" id="svg_141">
   <g stroke="null" transform="matrix(0.23803729521239178,0,0,0.2939684389932025,-678.8275336178644,-654.8043780005271) " id="svg_122">
    <g stroke="null" id="svg_123">
     <path stroke="null" id="svg_124" fill="#24292C" d="m3265.54201,2955.607042l0,-24.15282c0,-5.28967 -0.69863,-8.78285 -1.9961,-10.67915c-1.29747,-1.89629 -3.39337,-2.79454 -5.9883,-2.79454c-1.99611,0 -3.7926,0.49903 -5.38948,1.69669c-1.59688,1.19766 -2.79454,2.69473 -3.59298,4.79064c-0.79844,1.9961 -1.29747,5.18986 -1.29747,9.68109l0,21.45809l-11.77699,0l0,-23.05497c0,-4.19181 -0.29942,-7.08616 -0.89825,-8.98245c-0.59883,-1.8963 -1.59688,-3.29357 -2.79454,-4.19182c-1.19766,-0.89824 -2.59493,-1.29746 -4.39142,-1.29746c-1.99611,0 -3.8924,0.49902 -5.48928,1.69668c-1.59688,1.19766 -2.79455,2.79455 -3.59299,4.89045c-0.79844,2.09591 -1.19766,5.58909 -1.19766,10.08031l0,20.85926l-11.57738,0l0,-47.20779l11.77699,0l0,5.38947c1.99611,-2.19571 4.19182,-3.69279 6.68694,-4.79064c2.49513,-1.09786 5.09006,-1.59689 8.08421,-1.59689c2.89435,0 5.58909,0.69864 7.8846,2.19572c2.39533,1.39727 4.29162,3.69278 5.7887,6.48733c1.89629,-2.79455 4.09201,-4.99026 6.78674,-6.48733c2.69474,-1.39727 5.7887,-2.19572 8.98246,-2.19572c3.29357,0 6.18791,0.79845 8.68304,2.29552c2.49513,1.59688 4.39142,3.59298 5.48928,6.08811c1.09785,2.49513 1.69668,6.38752 1.69668,11.97661l0,27.84561l-11.8768,0l0,0l0,0zm62.977,-11.27797c-2.19571,3.8924 -5.18986,6.88655 -8.98246,8.98246c-3.79259,2.19571 -7.9844,3.29356 -12.57543,3.29356c-6.68694,0 -12.47564,-2.39532 -17.16648,-7.18596c-4.79064,-4.79065 -7.08616,-10.57934 -7.08616,-17.46589c0,-7.28577 2.69474,-13.37388 8.08421,-18.26433c4.69084,-4.29161 10.08032,-6.38752 16.26823,-6.38752c4.39142,0 8.58324,1.09786 12.47563,3.29357c3.8924,2.19571 6.88655,5.18986 9.08226,8.98245c2.19572,3.7926 3.29357,7.8846 3.29357,12.27603c-0.0998,4.49122 -1.19766,8.58323 -3.39337,12.47563l0,0l0,0zm-12.07641,-22.15673c-2.39533,-2.49512 -5.48928,-3.79259 -9.18207,-3.79259c-3.69279,0 -6.68694,1.29747 -9.08226,3.79259c-2.39532,2.49513 -3.69279,5.7887 -3.69279,9.7809c0,4.09201 1.19766,7.38558 3.59298,9.8807c2.39533,2.49513 5.48928,3.7926 9.08226,3.7926c3.69279,0 6.78675,-1.29747 9.18207,-3.7926c2.39532,-2.59493 3.69279,-5.8885 3.69279,-9.8807c0,-3.9922 -1.19766,-7.28577 -3.59298,-9.7809l0,0l0,0zm51.39961,33.4347l0,-20.85926c0,-5.58908 -0.29942,-9.08226 -0.79844,-10.97855c-0.49903,-1.7965 -1.39727,-3.19377 -2.59494,-4.19182c-1.19766,-0.99805 -2.79454,-1.49707 -4.69083,-1.49707c-2.39533,0 -4.39143,0.79844 -6.08811,2.39532c-1.69669,1.59688 -2.89435,3.79259 -3.59299,6.58713c-0.29941,1.49708 -0.49902,4.89045 -0.49902,9.7809l0,18.76335l-11.777,0l0,-47.20779l11.777,0l0,4.79064c2.69474,-2.29552 5.09006,-3.69279 7.28577,-4.59103c2.19571,-0.89825 4.39142,-1.29747 6.68694,-1.29747c4.69084,0 8.58323,1.59688 11.777,4.79064c2.69473,2.79454 4.29161,6.88655 4.29161,12.27603l0,31.03937l-11.77699,0l0,0.19961l0,0zm61.0807,10.57934c-4.29162,5.09006 -10.57934,7.68499 -19.26238,7.68499c-4.59103,0 -8.58324,-0.59883 -11.67719,-1.79649c-3.09396,-1.19766 -5.7887,-2.79454 -7.8846,-5.09006c-2.19571,-2.19571 -3.99221,-4.99025 -4.99026,-8.18402l13.37388,0c1.19766,1.29747 2.39532,2.39533 4.29162,2.99416c1.79649,0.69863 3.9922,0.99805 6.38753,0.99805c3.19376,0 5.68888,-0.49903 7.58518,-1.49708c1.8963,-0.99805 3.29357,-2.19571 4.09201,-3.79259c0.79844,-1.59688 1.19766,-4.09201 1.19766,-7.8846c-2.09591,2.0959 -4.29162,3.39337 -6.58714,4.29162c-2.29551,0.89824 -4.79064,1.49707 -7.68499,1.49707c-6.28771,0 -11.57738,-2.39532 -15.96881,-6.98635c-4.29162,-4.49123 -6.28772,-10.18012 -6.28772,-17.06667c0,-7.38557 1.9961,-13.47368 6.58714,-18.06472c4.19181,-4.092 8.98245,-6.08811 14.77115,-6.08811c2.69473,0 5.38947,0.49903 7.78479,1.49708c2.39533,0.99805 4.79065,2.69474 7.28577,4.99025l0,-5.38947l11.777,0l0,40.22144c0.09981,7.98441 -1.59688,13.87291 -4.79064,17.6655l0,0l0,0zm-9.98051,-44.21365c-2.39532,-2.39532 -5.58908,-3.89239 -9.28187,-3.89239c-3.69279,0 -6.68694,1.49707 -9.08226,3.9922c-2.39532,2.49513 -3.79259,5.68889 -3.79259,9.48148c0,3.8924 1.39727,6.98636 3.89239,9.48148c2.49513,2.49513 5.58909,3.7926 9.28188,3.7926c3.69278,0 6.68693,-1.19767 8.98245,-3.69279c2.39532,-2.39532 3.59298,-5.68889 3.59298,-9.58129c0,-3.9922 -1.19766,-7.08616 -3.59298,-9.58129l0,0l0,0zm66.66979,22.35634c-2.19571,3.8924 -5.18987,6.88655 -8.98246,8.98246c-3.79259,2.19571 -7.98441,3.29356 -12.57544,3.29356c-6.68694,0 -12.47563,-2.39532 -17.16647,-7.18596c-4.79064,-4.79065 -7.08616,-10.57934 -7.08616,-17.46589c0,-7.28577 2.69474,-13.37388 8.08421,-18.26433c4.69084,-4.29161 10.08031,-6.38752 16.26823,-6.38752c4.39142,0 8.58323,1.09786 12.47563,3.29357c3.8924,2.19571 6.88655,5.18986 9.08226,8.98245c2.19571,3.7926 3.29357,7.8846 3.29357,12.27603c-0.09981,4.49122 -1.19766,8.58323 -3.39337,12.47563l0,0l0,0zm-12.17622,-22.15673c-2.39532,-2.49512 -5.48928,-3.79259 -9.18207,-3.79259c-3.69279,0 -6.68694,1.29747 -9.08226,3.79259c-2.39532,2.49513 -3.69279,5.7887 -3.69279,9.7809c0,4.09201 1.19766,7.38558 3.59299,9.8807c2.39532,2.49513 5.48927,3.7926 9.08226,3.7926c3.69279,0 6.78674,-1.29747 9.18206,-3.7926c2.39532,-2.59493 3.69279,-5.8885 3.69279,-9.8807c0,-3.9922 -1.19766,-7.28577 -3.59298,-9.7809l0,0l0,0z"/>
     <path stroke="null" id="svg_125" fill="#FC9E18" d="m3510.36384,2956.704902c-6.78674,0 -14.97076,-2.39532 -14.97076,-16.56764l0,-53.69513l11.777,0l0,51.49942c0,5.38947 2.19571,6.98635 5.38948,6.98635l1.59688,0l0,10.67914c0,0 -1.69669,1.09786 -3.7926,1.09786l0,0l0,0zm42.91618,-1.09786l0,-5.38947c-2.29551,2.19571 -4.59103,3.9922 -6.88655,4.89045c-2.29551,0.99805 -4.89044,1.49707 -7.58518,1.49707c-6.08811,0 -11.27797,-2.39532 -15.6694,-7.08616c-4.39142,-4.69083 -6.88655,-10.57933 -6.88655,-17.56569c0,-7.18596 2.39532,-13.07446 6.58714,-17.7653c4.29161,-4.59103 9.48148,-6.88655 15.56959,-6.88655c2.79454,0 5.48928,0.49902 7.8846,1.59688c2.49513,1.09786 4.79064,2.69474 6.88655,4.89045l0,-5.38947l11.777,0l0,47.10799l-11.6772,0l0,0.0998l0,0zm-3.19376,-33.63431c-2.39532,-2.49512 -5.48928,-3.79259 -9.18207,-3.79259c-3.59298,0 -6.68694,1.29747 -9.08226,3.8924c-2.39532,2.59493 -3.79259,5.9883 -3.79259,9.98051c0,4.092 1.39727,7.28577 3.79259,9.8807c2.49513,2.59493 5.48928,3.8924 9.08226,3.8924c3.69279,0 6.78675,-1.29747 9.18207,-3.8924c2.39532,-2.59493 3.69279,-5.8885 3.69279,-10.08031c0,-3.99221 -1.19766,-7.38558 -3.69279,-9.88071l0,0l0,0zm65.17271,27.5462c-4.39142,4.69084 -9.8807,7.08616 -15.86901,7.08616c-2.69473,0 -4.99025,-0.49902 -7.38557,-1.49707c-2.29552,-0.99805 -4.79064,-2.69474 -7.08616,-4.89045l0,5.38947l-11.777,0l0,-64.87329l11.777,0l0,23.05497c2.09591,-2.09591 4.59103,-3.79259 7.08616,-4.89045c2.49513,-1.09786 5.09006,-1.59688 7.98441,-1.59688c6.0881,0 11.27797,2.29552 15.56959,6.88655c4.29161,4.59103 6.38752,10.47953 6.38752,17.7653c-0.09981,7.08616 -2.29552,12.87486 -6.68694,17.56569l0,0l0,0zm-8.68304,-27.44639c-2.39532,-2.59493 -5.48928,-3.8924 -9.08226,-3.8924c-3.69279,0 -6.78675,1.29747 -9.18207,3.79259c-2.39532,2.49513 -3.69278,5.7887 -3.69278,9.88071c0,4.19181 1.19766,7.48538 3.69278,10.08031c2.39532,2.59493 5.48928,3.8924 9.18207,3.8924c3.59298,0 6.58713,-1.29747 9.08226,-3.8924c2.49513,-2.59493 3.69279,-5.98831 3.69279,-9.98051c-0.09981,-3.9922 -1.29747,-7.28577 -3.69279,-9.8807l0,0l0,0z"/>
    </g>
    <g stroke="null" id="svg_126">
     <path stroke="null" id="svg_127" fill="#6086A9" d="m3159.549024,2984.550516l0,-3.69279l6.38753,0l0,3.69279c0,1.79649 -1.39727,3.19376 -3.19376,3.19376c-1.79649,0 -3.19377,-1.49708 -3.19377,-3.19376l0,0z"/>
     <path stroke="null" id="svg_128" fill="#466E93" d="m3141.783724,2984.550516l0,-3.69279l6.38753,0l0,3.69279c0,1.79649 -1.39727,3.19376 -3.19377,3.19376c-1.69668,0 -3.19376,-1.49708 -3.19376,-3.19376l0,0z"/>
     <path stroke="null" id="svg_129" fill="#6086A9" d="m3124.018424,2984.550516l0,-3.69279l6.38752,0l0,3.69279c0,1.79649 -1.39727,3.19376 -3.19376,3.19376c-1.69668,0 -3.19376,-1.49708 -3.19376,-3.19376l0,0z"/>
    </g>
    <path stroke="null" id="svg_130" fill="url(#svg_120)" d="m3172.124465,2976.865519l-2.89435,4.29162l-48.60506,0l-2.69474,-4.29162l54.19415,0l0,0z"/>
    <path stroke="null" id="svg_131" fill="#000000" opacity="0.1" d="m3173.521735,2974.769619l-2.89434,4.29161l-51.29981,0l-2.69474,-4.29161l56.88889,0l0,0z"/>
    <path stroke="null" id="svg_132" fill="#FAAC18" d="m3112.640645,2945.925949l0,-56.48967c0.09981,-15.56959 12.67524,-28.34464 28.74386,-30.04132c0.89825,-0.19961 1.49708,-0.79844 1.69669,-1.19766c0.49902,-0.89825 0.99805,-1.8963 1.29746,-2.69474c0.19961,-0.49902 1.09786,-0.59883 1.29747,0c0.29941,0.79844 0.89824,1.79649 1.29746,2.69474c0.19961,0.39922 0.69864,0.99805 1.69669,1.19766c16.06862,1.69668 28.54425,14.47173 28.64406,30.04132l0,0l0,56.48967l-64.67369,0l0,0z"/>
    <path stroke="null" id="svg_133" fill="#F7941D" d="m3161.046105,2889.536089l0,0l0,48.90448l0.0998,0l0,0.89825c0,2.49513 1.99611,4.49123 4.49123,4.49123l5.7887,0c2.49512,0 4.49122,-1.9961 4.49122,-4.49123l0,-0.89825l0,0l0,-48.20585c-0.0998,-15.869 -13.17426,-28.64405 -27.7458,-29.84171c-1.59689,-0.09981 -2.69474,-3.29357 -2.69474,-3.29357c0,0 -1.19766,4.49123 1.79649,6.68694c8.18402,5.98831 13.7731,15.17037 13.7731,25.74971l0,0z"/>
    <path stroke="null" id="svg_134" fill="#FFFFFF" opacity="0.35" d="m3144.977485,2867.878389c13.6733,0 24.85147,11.07836 24.85147,24.85146c0,13.6733 -11.07837,24.85146 -24.85147,24.85146c-13.67329,0 -24.85146,-11.07836 -24.85146,-24.85146c0.09981,-13.7731 11.17817,-24.85146 24.85146,-24.85146l0,0z"/>
    <g stroke="null" id="svg_135" fill="#162331">
     <path stroke="null" id="svg_136" d="m3164.738893,2927.961042c-3.8924,0 -5.09006,1.49707 -5.09006,4.39142c0,4.89045 5.9883,10.57934 5.9883,19.46199c0,6.48733 -3.79259,11.8768 -12.17621,11.8768l-3.8924,0l0,-7.8846l1.69669,0c3.09395,0 4.092,-1.79649 4.092,-4.69084c0,-6.58713 -3.59298,-12.47563 -3.59298,-17.46588c0,-4.99026 1.69669,-7.38558 7.58519,-8.68304c-5.98831,-1.29747 -7.58519,-5.18987 -7.58519,-10.18012c0,-4.89045 3.59298,-8.88265 3.59298,-15.46979c0,-2.89434 -1.49707,-5.18986 -5.09006,-5.18986l-3.49317,0l0,-6.08811c8.98245,-4.59103 16.46783,3.59298 16.46783,9.68109c0,8.78285 -3.69278,15.56959 -3.69278,20.46004c0,2.79454 1.19766,3.9922 5.09005,3.9922l2.69474,0l0,5.7887l-2.59493,0l0,0zm-21.5579,-33.83392l-3.09395,0c-3.59298,0 -5.09006,2.29552 -5.09006,5.18986c0,6.58714 3.59298,10.67915 3.59298,15.46979c0,4.99025 -1.9961,8.88265 -7.9844,10.18012c5.9883,1.29746 7.9844,3.59298 7.9844,8.68304c0,4.89045 -3.59298,10.87875 -3.59298,17.46588c0,2.89435 0.99805,4.69084 4.09201,4.69084l1.69668,0l0,7.8846l-3.89239,0c-8.38363,0 -12.17622,-5.38947 -12.17622,-11.8768c0,-8.88265 5.9883,-14.57154 5.9883,-19.46199c0,-2.79454 -0.99805,-4.39142 -4.89045,-4.39142l-3.19376,0l0,-5.8885l3.19376,0c3.8924,0 4.89045,-1.19766 4.89045,-3.9922c0,-4.89045 -3.69279,-11.6772 -3.69279,-20.46004c0,-5.98831 7.28577,-14.07252 16.16842,-9.7809l0,6.28772l0,0z"/>
    </g>
    <path stroke="null" id="svg_137" fill="#FDECB2" d="m3135.296395,2861.890089c-9.78089,5.68888 -16.36803,15.7692 -16.46783,27.34658l0,0l0,52.79689l0,0.49902c0,0.69864 -0.49903,1.19766 -1.19767,1.19766l-1.49707,0c-0.69864,0 -1.29747,-0.59883 -1.29747,-1.29746l0,-0.29942l0,-52.19805c0,-12.77505 8.48343,-23.6538 20.46004,-28.04522"/>
    <path stroke="null" id="svg_138" fill="url(#svg_119)" d="m3176.515885,2949.618739c-0.29941,0.99805 -0.49902,2.19571 -0.49902,3.19376c0,0 0,0 0,0.09981l0,22.45614c0,1.79649 -1.39727,3.19376 -3.19376,3.19376l-55.59143,0c-1.79649,0 -3.19376,-1.39727 -3.19376,-3.19376l0,-22.55595c0,0 0,0 0,-0.0998c-0.0998,-0.99805 -0.19961,-2.09591 -0.49902,-3.09396c-0.79844,-2.29552 -2.69474,-3.69279 -2.69474,-3.69279l68.26667,0c0,0 -1.79649,1.39727 -2.59494,3.69279l0,0z"/>
    <path stroke="null" id="svg_139" fill="url(#svg_118)" d="m3175.917055,2960.497489l-21.05886,0c-1.7965,0 -3.19377,-1.39727 -3.19377,-3.19376c0,-1.79649 1.39727,-3.19376 3.19377,-3.19376l21.05886,0l0,6.38752l0,0z"/>
    <path stroke="null" id="svg_140" fill="url(#svg_117)" d="m3114.037915,2954.109969l21.05887,0c1.79649,0 3.19376,1.39727 3.19376,3.19376c0,1.79649 -1.39727,3.19376 -3.19376,3.19376l-21.05887,0l0,-6.38752l0,0z"/>
   </g>
  </g>
  <defs>
   <linearGradient id="svg_149" y2="100%" x2="100%" y1="0%" x1="0%">
    <stop offset="0%" stop-color="#F6C338"/>
    <stop offset="52.2782398%" stop-color="#FFD351"/>
    <stop offset="100%" stop-color="#F6C338"/>
   </linearGradient>
   <linearGradient id="svg_148" y2="100%" x2="0%" y1="0%" x1="100%">
    <stop offset="0%" stop-color="#286EE6"/>
    <stop offset="52.1046125%" stop-color="#4286FB"/>
    <stop offset="100%" stop-color="#286EE6"/>
   </linearGradient>
   <linearGradient id="svg_147" y2="100%" x2="35.9954834%" y1="0%" x1="65.2893066%">
    <stop offset="0%" stop-color="#069B5A"/>
    <stop offset="53.1031222%" stop-color="#11AA62"/>
    <stop offset="100%" stop-color="#069B5A"/>
   </linearGradient>
  </defs>
  <g id="svg_158">
   <g transform="matrix(0.2712673404150543,0,0,0.2712673404150543,0,0) " id="svg_151">
    <path id="svg_152" fill="url(#svg_149)" d="m1746.890555,615.520877l89,0l83.7,144.3l-89.2,0l-83.5,-144.3z"/>
    <path id="svg_153" fill="url(#svg_148)" d="m1919.590555,759.820877l-44.6,77.1l-167,0l44.7,-77.1l166.9,0z"/>
    <path id="svg_154" fill="url(#svg_147)" d="m1707.990555,836.920877l-44.4,-77.1l83.3,-144.3l44.7,77.3l-83.6,144.1z"/>
    <path id="svg_155" fill="#000000" opacity="0.1" d="m1707.990555,836.920877l83.1,-77.1l-38.4,0l-44.7,77.1z"/>
    <path id="svg_156" fill="#000000" opacity="0.1" d="m1919.590555,759.820877l-89.1,0l-19.6,-33.8l108.7,33.8z"/>
    <path id="svg_157" fill="#000000" opacity="0.1" d="m1746.890555,615.520877l25.7,110l19,-32.7l-44.7,-77.3z"/>
   </g>
  </g>
  <g stroke="null" id="svg_161">
   <path stroke="#000" d="m427.97619,194c0,1 0,3 0,7c0,3 0,5 0,9l0,2l0,1l0,1" id="svg_159" stroke-width="1.5" fill="none"/>
   <path stroke="#000" d="m417.5,204c1.25,0 2.5,0 5,0c1.25,0 2.5,0 3.75,0c1.25,0 3.75,0 5,0c1.25,0 2.5,0 3.75,0l1.25,0l1.25,0" id="svg_160" stroke-width="1.5" fill="none"/>
  </g>
  <g stroke="null" id="svg_168">
   <g stroke="null" transform="matrix(0.24001733120944888,0,0,0.2204860754559455,9.248003527492983,53.02962411062617) " id="svg_165">
    <path stroke="null" id="svg_166" fill="#563D7C" d="m241.773278,1271.801983c0,18.23225 14.77853,33.00878 33.00877,33.00878l189.98245,0c18.23225,0 33.00878,-14.77853 33.00878,-33.00878l0,-189.98245c0,-18.23224 -14.77853,-33.00877 -33.00878,-33.00877l-189.98245,0c-18.23224,0 -33.00877,14.77853 -33.00877,33.00877l0,189.98245z"/>
    <path stroke="null" id="svg_167" fill="#FFFFFF" d="m347.930838,1162.048863l0,-36.25351l31.91177,0c3.03923,0 5.96987,0.25327 8.79202,0.75981c2.82214,0.50654 5.31861,1.41106 7.48949,2.71358c2.17088,1.30253 3.90756,3.11157 5.21008,5.42717c1.30253,2.31561 1.95379,5.28243 1.95379,8.90056c0,6.51264 -1.95377,11.21614 -5.86135,14.11065c-3.90758,2.8945 -8.90053,4.34174 -14.97899,4.34174l-34.51681,0l0,0zm-34.08263,-62.7381l0,155l75.11204,0c6.94682,0 13.71262,-0.86834 20.29762,-2.60504c6.585,-1.73671 12.44629,-4.41408 17.58404,-8.03222c5.13775,-3.61813 9.22617,-8.28545 12.2654,-14.0021c3.03923,-5.71664 4.55883,-12.48245 4.55883,-20.29761c0,-9.6966 -2.35175,-17.982 -7.05532,-24.85645c-4.70358,-6.87445 -11.83119,-11.68649 -21.38306,-14.43627c6.94682,-3.32868 12.19303,-7.59801 15.7388,-12.80812c3.54577,-5.21011 5.31863,-11.72266 5.31863,-19.53782c0,-7.23626 -1.19397,-13.31463 -3.58194,-18.23529c-2.38797,-4.92066 -5.75278,-8.86437 -10.09454,-11.83124c-4.34175,-2.96687 -9.55179,-5.10153 -15.63025,-6.40406c-6.07846,-1.30253 -12.80808,-1.95378 -20.18907,-1.95378l-72.94118,0l0,0zm34.08263,128.51541l0,-42.54902l37.12185,0c7.38099,0 13.31464,1.70049 17.80112,5.10154c4.48649,3.40104 6.72969,9.08142 6.72969,17.04131c0,4.05231 -0.68743,7.38094 -2.06232,9.986c-1.37489,2.60505 -3.22011,4.66736 -5.53571,6.18697c-2.31561,1.51962 -4.99299,2.60504 -8.03222,3.2563c-3.03923,0.65127 -6.22314,0.9769 -9.55182,0.9769l-36.47059,0l0,0z"/>
   </g>
  </g>
  <g stroke="null" id="svg_171">
   <path stroke="#000" d="m154.97619,305c0,1 0,3 0,7c0,3 0,5 0,9l0,2l0,1l0,1" id="svg_169" stroke-width="1.5" fill="none"/>
   <path stroke="#000" d="m144.5,315c1.25,0 2.5,0 5,0c1.25,0 2.5,0 3.75,0c1.25,0 3.75,0 5,0c1.25,0 2.5,0 3.75,0l1.25,0l1.25,0" id="svg_170" stroke-width="1.5" fill="none"/>
  </g>
  <g stroke="null" id="svg_174">
   <path stroke="#000" d="m280.97619,307c0,1 0,3 0,7c0,3 0,5 0,9l0,2l0,1l0,1" id="svg_172" stroke-width="1.5" fill="none"/>
   <path stroke="#000" d="m270.5,317c1.25,0 2.5,0 5,0c1.25,0 2.5,0 3.75,0c1.25,0 3.75,0 5,0c1.25,0 2.5,0 3.75,0l1.25,0l1.25,0" id="svg_173" stroke-width="1.5" fill="none"/>
  </g>

  <g stroke="null" id="svg_191">
   <g transform="matrix(0.20894961454711963,0,0,0.4042112940729533,-599.6694444649992,-976.870158245197) " id="svg_178" fill-rule="evenodd" fill="none">
    <g stroke="null" id="svg_179">
     <path stroke="null" id="svg_180" fill="#1A1918" d="m4792.984643,3145.390922l21.42063,0.1177c0,0 -39.82516,53.96402 -43.07666,58.36212c-1.05637,1.42418 -2.66103,2.96018 -3.47414,4.864c-2.05683,4.78651 -4.16859,15.28545 -4.16859,15.28545l-19.5992,0.09711c0,0 3.04944,-10.94327 2.92389,-16.77242c-0.11083,-5.09253 -2.71007,-10.1782 -4.16858,-15.28545c-1.47323,-5.16905 -3.47415,-15.28546 -3.47415,-15.28546l20.14946,0l2.77873,11.11687l30.68861,-42.49992"/>
     <path stroke="null" id="svg_181" fill="#1A1918" d="m4752.423843,3156.771642c3.9528,2.38345 6.37843,15.52871 6.37843,15.52871c0,0 -20.68402,0.30504 -31.94017,0.30504l-9.72702,0l-11.81131,51.4148l-18.06419,0c0,0 11.24144,-55.87469 13.89561,-66.00484c0.86118,-3.27896 5.89192,-2.71694 14.38896,-2.71694l13.56898,0c8.76187,0 19.00285,-1.11816 23.31071,1.47323"/>
     <path stroke="null" id="svg_182" fill="#1A1918" d="m4668.326373,3181.811582c0,0 0.56301,-3.30054 -1.91068,-7.1219c-2.11175,-3.25836 -4.06363,-4.01557 -9.62207,-4.18918c-15.69545,-0.49337 -15.3904,11.13747 -15.3904,11.13747l26.92315,0.17361l0,0zm17.02253,-13.31887c2.30008,8.29597 -2.08429,27.79121 -2.08429,27.79121c0,0 -22.89385,-0.38253 -35.43393,0c-3.89885,0.11868 -8.56668,-0.42373 -9.72702,1.38985c-1.6331,2.54235 0.59635,6.45493 2.48644,8.10765c2.17551,1.90381 6.41275,2.1196 7.93502,2.31381c10.1782,1.29275 31.48113,0.33348 31.48113,0.33348l-3.68993,16.34085c0,0 -30.10403,1.50853 -45.16095,-2.08429c-2.97294,-0.70817 -5.75951,-2.13922 -7.64273,-4.16859c-0.51396,-0.55515 -0.95926,-1.31237 -1.44576,-1.96561c-0.38841,-0.5218 -1.52031,-2.2373 -2.02838,-3.59282c-3.43884,-9.16402 0.40312,-26.72111 4.16858,-36.12837c0.43745,-1.0907 0.98673,-2.47271 1.56444,-3.64776c0.7219,-1.46538 1.33297,-3.11908 1.9097,-3.99497c0.38842,-0.6042 0.86903,-0.99359 1.27216,-1.56346c0.46492,-0.67384 1.00634,-1.32708 1.50755,-1.9097c1.38888,-1.61251 2.96607,-2.75225 4.86302,-4.16859c6.27347,-4.69725 17.62673,-8.34501 31.26535,-6.94829c5.13471,0.5277 12.88926,2.36187 16.67531,7.64273c1.01419,1.41045 1.51442,4.20978 2.08429,6.25287l0,0l0,0z"/>
     <path stroke="null" id="svg_183" fill="#1A1918" d="m4602.495143,3155.235642l17.51589,-0.10397c0,0 -9.76135,46.30756 -14.73618,68.88852l-20.14946,0c-14.08294,0 -26.624,1.74394 -31.95978,-8.33814c-5.17591,-9.78882 -0.23639,-25.88739 2.08429,-36.82379c1.63997,-7.73983 5.09352,-23.55985 5.09352,-23.55985l18.14755,-0.16674c0,0 -5.12785,24.62995 -7.26118,36.92776c-0.76408,4.40496 -2.34029,8.55295 -0.69444,11.81131c1.56347,3.09946 3.75173,3.32113 10.42146,3.47414c2.11274,0.04904 9.03258,0 9.03258,0l12.50575,-52.10924"/>
     <path stroke="null" id="svg_184" fill="#1A1918" d="m4520.510403,3188.585282c1.83418,-6.51672 4.50894,-13.58271 4.16859,-19.45404c-0.36782,-6.28034 -5.63397,-11.99865 -9.03161,-13.20018c-10.23411,-3.61343 -19.81498,1.43791 -23.62262,5.55745c-4.92677,5.33677 -6.5942,11.56905 -8.33814,20.14946c-1.29864,6.37057 -2.36187,13.09621 0,18.06418c4.18231,8.78247 17.2236,6.86492 31.26535,6.9483c2.08429,-5.58591 3.80763,-11.86036 5.55843,-18.06517l0,0l0,0zm24.31804,-25.70691c2.00092,14.54884 -5.67614,30.60622 -10.96386,44.57048c5.39169,0.4865 10.11641,-0.07552 10.45677,0.32662c0.35408,0.52181 -3.61343,16.66845 -4.99642,16.70964c-4.27941,0.11182 -18.45946,0.22952 -24.37296,0.22952c-19.29416,0 -37.34462,1.25744 -46.54983,-8.33717c-3.73799,-3.89787 -6.32251,-10.58231 -6.94829,-15.28545c-1.04263,-7.85165 0.26385,-16.49484 2.08429,-23.62262c1.64684,-6.43433 3.75859,-12.50673 6.9483,-18.06517c8.10764,-14.15258 22.21216,-24.65741 45.85538,-22.23276c4.58544,0.47276 11.1718,2.48055 15.28546,4.86302c0.28444,0.16772 1.27902,0.95926 1.50755,1.09854c5.55844,3.53692 10.62351,11.97805 11.69361,19.74535l0,0l0,0z"/>
     <path stroke="null" id="svg_185" fill="#1A1918" d="m4459.459803,3155.319012c-1.1672,5.31519 -2.33441,11.33953 -3.56438,16.59194l-19.45404,0c1.50755,-5.82228 2.66102,-11.61024 4.16858,-16.67531c6.22541,0 12.01336,0.08337 18.84984,0.08337"/>
     <path stroke="null" id="svg_186" fill="#1A1918" d="m4435.746943,3176.773972l18.75862,0c-2.45211,13.57683 -7.30826,35.47611 -11.11589,50.71939c-2.38345,9.53968 -3.97438,16.5017 -10.42244,21.53833c-0.57673,0.45216 -0.90924,0.23736 -1.38887,0.69541c-1.18878,1.13288 -6.68445,2.44623 -9.72702,2.77873c-4.94737,0.53554 -10.54014,0.06964 -16.6194,-0.05493c1.59092,-5.81541 3.39077,-12.79803 4.80809,-18.00925c14.81955,1.79298 15.19522,-12.21444 18.06418,-25.70691c1.66057,-7.79574 6.69131,-28.83384 7.64273,-31.96077"/>
     <g stroke="null" id="svg_187" fill="#21609B">
      <path stroke="null" id="svg_188" d="m4391.974863,3212.208889l-0.40214,1.04165c-6.85119,13.33946 -18.98912,21.5246 -36.30296,21.88555c-8.09392,0.16674 -15.80628,-1.9097 -20.84389,-4.16858c-10.87265,-4.8846 -20.01704,-13.94367 -25.0115,-23.62262c-7.16407,-13.87501 -8.45584,-33.17603 6.44022,-47.59246c0.22952,0 -1.80671,3.12594 -1.5772,3.12594l-0.40999,1.33395c-10.73434,33.60662 22.33674,62.40613 54.48484,59.11246c7.7261,-0.79154 17.57867,-5.0229 23.62262,-11.11589"/>
      <path stroke="null" id="svg_189" d="m4372.520833,3198.312299c8.08803,0.05591 16.53603,-3.72426 21.53832,-9.0316c-4.37652,11.11001 -17.04901,18.25153 -34.04407,15.97989c-14.22909,-1.90381 -27.78434,-16.22314 -29.18106,-30.57091c-1.02106,-10.44205 2.61885,-16.67433 8.61573,-24.23368c-2.0843,3.95377 -2.86309,7.00322 -3.05729,8.94823c-2.2785,22.58783 18.04358,38.79037 36.12837,38.90807"/>
      <path stroke="null" id="svg_190" d="m4393.247023,3170.257249c-1.25744,2.88368 -8.49704,8.3303 -11.69361,9.01101c-12.65876,2.69633 -20.76641,-3.30642 -25.01248,-10.13701c-0.63166,-1.02106 -1.79886,-3.80666 -2.00778,-4.5158c-1.64684,-5.59964 -0.88963,-14.06922 4.02342,-18.45358c-1.4801,4.16858 -1.69588,9.011 -0.91709,12.15853c0.47178,1.90381 1.9097,5.22593 3.34859,7.3161c2.61885,3.80763 4.27942,4.73257 7.64273,6.75409c1.51442,0.91022 3.13968,1.63997 3.84196,1.84104c3.18872,0.93768 9.92123,3.41137 20.77426,-3.97438"/>
     </g>
    </g>
   </g>
  </g>
  <g stroke="null" id="svg_194">
   <path stroke="#000" d="m432.97619,305c0,1 0,3 0,7c0,3 0,5 0,9l0,2l0,1l0,1" id="svg_192" stroke-width="1.5" fill="none"/>
   <path stroke="#000" d="m422.5,315c1.25,0 2.5,0 5,0c1.25,0 2.5,0 3.75,0c1.25,0 3.75,0 5,0c1.25,0 2.5,0 3.75,0l1.25,0l1.25,0" id="svg_193" stroke-width="1.5" fill="none"/>
  </g>
  <g id="svg_202">
   <g transform="matrix(0.2712673404150543,0,0,0.2712673404150543,0,0) " id="svg_198" fill-rule="evenodd" fill="none">
    <path id="svg_199" fill="#000000" d="m1675.037504,1041.272826l23.79211,0l0,157.89306l94.08696,0l0,19.46626l-117.87906,0l0,-177.35932l-0.00001,0z"/>
    <path id="svg_200" fill="#000000" d="m1857.804134,1087.775576c16.22191,-2.16292 33.52523,1.08146 46.50276,11.89605c14.05895,9.73314 21.62919,27.03649 22.71065,43.25837c2.16292,19.46627 0,38.93254 -10.81461,55.15443c-9.73312,12.97752 -24.87357,21.6292 -42.17689,22.71066c-16.22191,2.16291 -34.60673,-1.08146 -48.66568,-11.89606c-12.97753,-10.8146 -19.46628,-27.03649 -21.62919,-43.25838c-2.16292,-17.30335 0,-36.76962 10.81458,-51.91005c8.65169,-15.14043 25.95502,-24.87356 43.25838,-25.95502l0,0zm3.24438,18.38481c10.81458,-1.08146 22.71065,2.16292 31.36231,9.73313c7.57024,8.65168 11.89607,19.46627 12.97753,30.28087c1.08146,11.89605 0,24.87356 -5.40729,35.68815c-5.40729,10.81459 -15.14045,18.38481 -27.03648,20.54773c-10.81462,2.16291 -22.71065,-1.08146 -30.28089,-7.57021c-8.65167,-6.48876 -14.05895,-16.22189 -16.22191,-25.95503c-2.16291,-14.05897 -1.08142,-28.11794 4.32587,-41.09545c5.40729,-11.89606 17.30336,-20.54773 30.28086,-21.62919l0,0z"/>
    <path id="svg_201" fill="#3492FF" d="m1675.037504,1246.750106l255.22442,0l0,27.03648l-255.22442,0l0,-27.03648l0,0z"/>
   </g>
  </g>
  <defs>
   <path d="m57.90339,1.84921c-1.84921,-1.04018 -4.04515,-1.04018 -5.89436,0l-48.65734,28.08488c-1.84921,1.04018 -2.88939,3.00496 -2.88939,5.08532l0,56.28533c0,2.08036 1.15576,4.04515 2.88939,5.08533l48.65734,28.08487c1.84921,1.04018 4.04515,1.04018 5.89436,0l48.65733,-28.08487c1.84921,-1.04018 2.88939,-3.00497 2.88939,-5.08533l0,-56.28533c0,-2.08036 -1.15575,-4.04514 -2.88939,-5.08532l-48.65733,-28.08488l0,0z" id="svg_228"/>
  </defs>
  <g stroke="null" id="svg_259">
   <g stroke="null" transform="matrix(0.27535398001796396,0,0,0.23365383556674665,-9.324079468463879,-4.622068011565261) " id="svg_257">
    <path stroke="null" id="svg_258" fill="#539E43" d="m407.926101,549.198782c-3.97516,0 -7.6853,-1.06004 -11.13044,-2.91511l-35.24637,-20.93582c-5.30021,-2.91512 -2.6501,-3.97516 -1.06004,-4.50518c7.15528,-2.38509 8.48033,-2.91511 15.90062,-7.15528c0.79503,-0.53002 1.85507,-0.26501 2.6501,0.26501l27.03106,16.16563c1.06004,0.53003 2.38509,0.53003 3.18012,0l105.73913,-61.21739c1.06004,-0.53002 1.59007,-1.59006 1.59007,-2.91511l0,-122.16977c0,-1.32506 -0.53003,-2.3851 -1.59007,-2.91512l-105.73913,-60.95238c-1.06004,-0.53002 -2.38509,-0.53002 -3.18012,0l-105.73913,60.95238c-1.06004,0.53002 -1.59007,1.85507 -1.59007,2.91512l0,122.16977c0,1.06004 0.53003,2.38509 1.59007,2.91511l28.88612,16.69566c15.63562,7.95031 25.441,-1.32506 25.441,-10.60042l0,-120.57971c0,-1.59006 1.32505,-3.18012 3.18012,-3.18012l13.51553,0c1.59006,0 3.18012,1.32505 3.18012,3.18012l0,120.57971c0,20.93582 -11.39544,33.12629 -31.27122,33.12629c-6.09523,0 -10.86542,0 -24.38095,-6.62525l-27.82609,-15.90062c-6.89026,-3.97516 -11.13043,-11.39545 -11.13043,-19.34576l0,-122.16977c0,-7.95031 4.24017,-15.3706 11.13043,-19.34576l105.73913,-61.21739c6.62526,-3.71015 15.63562,-3.71015 22.26088,0l105.73912,61.21739c6.89027,3.97516 11.13044,11.39545 11.13044,19.34576l0,122.16977c0,7.95031 -4.24017,15.3706 -11.13044,19.34576l-105.73912,61.21739c-3.44514,1.59006 -7.42029,2.38509 -11.13044,2.38509l0,0zm32.59627,-84.00828c-46.37681,0 -55.91718,-21.20083 -55.91718,-39.22153c0,-1.59007 1.32505,-3.18013 3.18012,-3.18013l13.78054,0c1.59006,0 2.91511,1.06004 2.91511,2.65011c2.12009,14.04554 8.21533,20.93581 36.30642,20.93581c22.26087,0 31.80125,-5.03519 31.80125,-16.96066c0,-6.89027 -2.65011,-11.92547 -37.36647,-15.3706c-28.88612,-2.91512 -46.90683,-9.27536 -46.90683,-32.33126c0,-21.46584 18.02071,-34.18634 48.23189,-34.18634c33.92132,0 50.61697,11.66046 52.73706,37.10145c0,0.79503 -0.26501,1.59006 -0.79503,2.38509c-0.53002,0.53002 -1.32506,1.06004 -2.12009,1.06004l-13.78053,0c-1.32505,0 -2.65011,-1.06004 -2.91512,-2.38509c-3.18012,-14.57557 -11.39544,-19.34576 -33.12629,-19.34576c-24.38096,0 -27.29607,8.48034 -27.29607,14.84058c0,7.68531 3.44514,10.0704 36.30642,14.31057c32.59627,4.24016 47.96687,10.3354 47.96687,33.12629c-0.26501,23.32091 -19.34575,36.57143 -53.00207,36.57143l0,0z"/>
   </g>
  </g>
  <line stroke-linecap="null" stroke-linejoin="null" id="svg_261" y2="193" x2="554.5" y1="193" x1="555.5" fill-opacity="null" stroke-opacity="null" stroke-width="1.5" stroke="#000" fill="none"/>
 </g>
</svg>